<svg id="圖層_1" data-name="圖層 1" xmlns="http://www.w3.org/2000/svg" viewBox="0 0 37.59 44.77"><defs><style>.cls-1{fill:#876970;}.cls-2{fill:#fff9b1;}.cls-3{fill:#fff;}.cls-4{fill:#bce2e8;}</style></defs><title>黃貓</title><path class="cls-1" d="M29.84,8.06a11.34,11.34,0,0,1,1.06,4.63c.56-.12,1-.47,1.68-.34,1,.9-1.53,1.32-1.58,1.35a4.5,4.5,0,0,1-.15,1.51c1.48-1.1,2.79-2.85,5.09-2a2.71,2.71,0,0,1,1.63,2.38,3.12,3.12,0,0,1-1.27,2.81A16.59,16.59,0,0,1,33,20.77c-2.75,1.32-5.46,2.68-8.31,3.75.41,2,2.23,9.84,2.82,11.5,0,.14-.27.17-.55.28,3.05,1.62,5.81,2.13,8.2,3.65a2.08,2.08,0,0,1,.69,2.18c-.81,1-1.35,2.4-2.74,2.6C31,45,29.26,43.45,27.62,42c-1.71-1.65-3.84-3.33-5.17-5.31-2.36,0-4.54.33-7,.35a21.58,21.58,0,0,1-7.67,6.77,4.43,4.43,0,0,1-4.15,0A3,3,0,0,1,2.49,40.5c.53-1.22,2-1.57,3.46-2,1.69-.8,3.53-1.14,5.08-2-.24-.05-.69-.24-.48-.6a97.36,97.36,0,0,0,2.7-11.73c-1.56-.5-11.1-2.63-12.86-5.83a2.88,2.88,0,0,1,0-2.79,2.9,2.9,0,0,1,1.6-1.46c1.84-.38,2.89.72,4.29,1.47L6.14,14c-.55-.39-2-.57-1.86-1.18.29-.53,1.36,0,1.84.17A11.17,11.17,0,0,1,7.46,8c-.3-2.22-.67-4.69-.07-6.86.11-.17.33-.29.84-.19,1.26.51,4.64,2.23,5.85,2.82a20.86,20.86,0,0,1,9.15.08C25,2.47,26.58.6,28.69,0,30-.1,30.13,5.71,29.84,8.06Z"/><path class="cls-2" d="M29,7.23c-.51-1-2.9-2.57-4.57-3.12a14.67,14.67,0,0,1,4-3.33C29,1.35,29,5.86,29,7.23Z"/><path class="cls-2" d="M12.56,3.95a11,11,0,0,0-2.5,1.26,11.29,11.29,0,0,0-1.9,1.74A24.57,24.57,0,0,1,8,1.78,34.19,34.19,0,0,1,12.56,3.95Z"/><path class="cls-2" d="M21,7.83c1.19-.4.77-3.52,1.11-3.48,3.93.5,5.08,2.13,5.77,2.88a6.8,6.8,0,0,1,2,4.39,12.46,12.46,0,0,1-.7,6.28A6.45,6.45,0,0,1,25,21.43c-2.42.95-5.31.73-8.18.73-2.77-.34-6.42-.58-8.74-4.12a8.27,8.27,0,0,1-.9-2.89A9.79,9.79,0,0,1,8.7,8a7.28,7.28,0,0,1,3.81-3A20.73,20.73,0,0,1,15,4.38c0,.6.27,3.22,1.28,3.29.79.13.61-2.69.7-3.49.66-.07,2.3-.06,3-.07C20,5.44,20.28,7.84,21,7.83Z"/><path class="cls-1" d="M28.92,10.27a2.46,2.46,0,0,1-.11,2.37,5.07,5.07,0,0,1-5.51,1.65,1.88,1.88,0,0,1-1.11-2.49,3.85,3.85,0,0,1,3.4-2.6A3.43,3.43,0,0,1,28.92,10.27Z"/><path class="cls-1" d="M13.72,10.62a3.26,3.26,0,0,1,1.37,3c-.71,1.58-2.54,1.36-4,1.17C9.38,14.31,8,13.6,7.83,11.93A2.64,2.64,0,0,1,8.73,10C9.65,9.36,12.14,9.59,13.72,10.62Z"/><path class="cls-3" d="M28.4,10.64a2.06,2.06,0,0,1-.22,1.78,5.17,5.17,0,0,1-1.4,1,4.89,4.89,0,0,0,.06-3.61C27.44,9.83,28.12,9.92,28.4,10.64Z"/><path class="cls-3" d="M10.7,10.21c-.35,1.06-.7,2.74-.06,3.75a2.83,2.83,0,0,1-1.91-1.34,1.89,1.89,0,0,1,.2-1.95C9.3,10,10.14,10.15,10.7,10.21Z"/><path class="cls-3" d="M24.57,12.53c.21.64.31,1.1.8,1.42a2.35,2.35,0,0,1-2.27-.55c-.42-.41-.34-1-.21-1.66A2.79,2.79,0,0,1,24.62,10,4.7,4.7,0,0,0,24.57,12.53Z"/><path class="cls-3" d="M14.42,12.52c.09.55.1.94-.28,1.26a3.52,3.52,0,0,1-1.71.44,4.07,4.07,0,0,0,.42-3.39A2.82,2.82,0,0,1,14.42,12.52Z"/><path class="cls-2" d="M36.36,14.53a2.58,2.58,0,0,1-.2,2.81c-2.87,3.1-11.14,6.35-11.65,6.43-.11-.47-.23-1-.26-1.15A8.09,8.09,0,0,0,30,18.49c.51.26,1.23.77,1.78.22s-1.5-1.15-1.5-1.15c.27-.5.07-.56.28-.91l.88-.61c.82.16,1.31.24,1.53-.18-.09-.21-.12-.58-.65-.54.73-.8,1.77-1.73,2.88-1.53A1.68,1.68,0,0,1,36.36,14.53Z"/><path class="cls-2" d="M5.09,15.65c-.28,0-.94.42-.72.7.46.39,1.69.06,2.16.27a10.09,10.09,0,0,0,.33,1.14c-.54.22-2,0-1.88.86.29.63,1.64,0,2.3.09a6.89,6.89,0,0,0,2.78,2.67,11.06,11.06,0,0,0,3.45,1.13,2.38,2.38,0,0,1-.1.84,45.3,45.3,0,0,1-7.57-2.43C4.11,20.21,2.12,19.57,1,17.86a2.34,2.34,0,0,1,.63-2.67C2.62,14.43,4.15,14.92,5.09,15.65Z"/><path class="cls-3" d="M23.13,22.74a28.81,28.81,0,0,1,.9,3.46c.43,2.07,1.84,8,2.06,9.24a76.39,76.39,0,0,1-8,.64,40.6,40.6,0,0,1-6.52-.34c.8-3.2,2.72-11.88,3.08-13A26.61,26.61,0,0,0,23.13,22.74Z"/><path class="cls-4" d="M20.27,25.32A1.89,1.89,0,0,1,20,27a2.16,2.16,0,0,1-1.66.27,1.48,1.48,0,0,1-.34-2.62A2,2,0,0,1,20.27,25.32Z"/><path class="cls-4" d="M20.18,30.53c.06.51.21,1-.09,1.44A2.3,2.3,0,0,1,18,32.3a1.5,1.5,0,0,1-.67-.83A1.45,1.45,0,0,1,17.86,30,1.69,1.69,0,0,1,20.18,30.53Z"/><path class="cls-2" d="M33.09,39.69c.91.53,2,.87,1.65,2a4.42,4.42,0,0,1-1.93,2.06c-1.48.29-2.61-.66-3.65-1.59-2.41-1.43-5.73-5.5-5.73-5.5.76-.09,1.8-.21,2.62-.25C26.88,36.82,31.6,39.17,33.09,39.69Z"/><path class="cls-2" d="M14.3,37.1c-.49,1.21-1.8,2-2.68,3-1.81,1.46-3.49,3.26-5.93,3.3-.43,0-1.22.17-1.62-.27a2.94,2.94,0,0,1-.56-2.55C3.9,39.95,5,39.52,6.31,39c2.17-.85,4.88-1.66,5.69-2.11C12.24,36.86,14.3,37.1,14.3,37.1Z"/><path class="cls-1" d="M19.17,16a.4.4,0,0,1-.12.59c1.24,1.1,3.05.77,4.46,1,.05.57-.28.77-.63,1.13a6.1,6.1,0,0,1-5.13,1,6.21,6.21,0,0,1-3.29-1.71c-.16-.19,0-.58.22-.49a6.53,6.53,0,0,0,3.57-.9,1.34,1.34,0,0,1-.26-.59A.78.78,0,0,1,19.17,16Z"/><path class="cls-3" d="M22.85,18.09a6.23,6.23,0,0,1-4.27,1.36,6.55,6.55,0,0,1-3-1.28c1.13-.26,2.72-.68,3-1.1C19.58,17.91,21.75,18.13,22.85,18.09Z"/><path class="cls-1" d="M10.26,22.69c-.27.37-.89.07-1.29-.33.2-.44,0-1.92.59-1.86C11.54,20.71,10.26,22.69,10.26,22.69Z"/><path class="cls-1" d="M6.36,21.44a1.06,1.06,0,0,1-.92-.35c-.23-.38.15-.76.26-1,.2-.53.5-1.31.76-1.83.38-.78,1.07.11,1,.58C7.4,19.59,6.9,21.43,6.36,21.44Z"/><path class="cls-1" d="M28.85,22.53c-.21.17-.46.11-.7.21s-.29.3-.59.27c-.12-.61-1-1.12-1-1.68s.93-.78,1.25-.58C28,20.85,28.76,22.6,28.85,22.53Z"/><path class="cls-1" d="M31.74,19.56a2.83,2.83,0,0,1,.53.73c.14.4.06.38-.3.65a4.61,4.61,0,0,1-.93.54,11.74,11.74,0,0,0-1.9-2.42,4.48,4.48,0,0,0,.45-1c.15-.65.19-.77.71-.23S31.26,19,31.74,19.56Z"/><path class="cls-1" d="M13.12,39.25a4.14,4.14,0,0,0-1,.71c-.06.06-.14.27-.22.3-.36.12-1-.86-1.33-1.19a7.4,7.4,0,0,1-1.34-1.44c-.17-.28,1.35-.49,1.59-.39A11.92,11.92,0,0,1,13.12,39.25Z"/><path class="cls-1" d="M9.27,40.38a7.33,7.33,0,0,1,1.22,1.44c-.3.07-.43.39-.67.57s-.69.39-1,.65c-1.07-1.2-2.11-2.64-3-3.92-.1-.14,1.36-.75,1.57-.68C8,38.69,8.76,39.86,9.27,40.38Z"/><path class="cls-1" d="M29.37,37.78a15,15,0,0,1-1.69,1.67,9.31,9.31,0,0,0-.91,1c-.17.44-1.45-1.32-1.82-1.57a3.45,3.45,0,0,1,.78-.65,6.76,6.76,0,0,0,.87-.76,1,1,0,0,1,.91-.42C28,37,28.88,37.68,29.37,37.78Z"/><path class="cls-1" d="M28.17,42c.39.38,1,1.13,1.48,1.47.58-1.27,1.82-2.33,2.62-3.51.2-.29.41-.55.62-.82a11.11,11.11,0,0,0-1.09-.51,1.08,1.08,0,0,0-1.34.37C30.25,39.28,28.08,41.93,28.17,42Z"/></svg>